<svg xmlns="http://www.w3.org/2000/svg" viewBox="0 0 847.947333 138.21352" width="847.947333pt" height="138.21352pt"><path d="M30.24 37.804882 Q29.439999 37.004883 28.68 36.844883 Q27.92 36.684883 24.639999 36.604881 L22 36.604881 L22 32.924881 L22.879999 32.924881 Q24.32 33.164883 34.559998 33.164883 Q46.400002 33.164883 47.84 32.924881 L48.799999 32.924881 L48.799999 36.604881 L46.639999 36.604881 Q43.68 36.604881 42.799999 36.684883 Q40.559998 36.764881 39.919998 36.964882 Q39.279999 37.164883 38.639999 37.804882 L38.559998 60.20488 Q38.559998 82.604881 38.639999 82.844879 Q38.720001 83.164879 38.959999 83.404877 Q39.439999 83.804878 45.040001 83.804878 Q50.720001 83.804878 52.799999 83.324883 Q57.52 81.964882 59.759998 78.844879 Q62 75.724884 62.879997 69.88488 Q62.879997 69.484879 63 68.484879 Q63.119999 67.484879 63.239998 66.684883 Q63.360001 65.88488 63.360001 65.804878 Q63.360001 65.724884 64.959999 65.724884 L66.559998 65.724884 L66.559998 66.124878 Q66.399994 66.364883 65.440002 76.644882 Q64.479996 86.924881 64.32 87.164879 L64.32 87.56488 L22 87.56488 L22 83.88488 L24.639999 83.88488 Q27.92 83.804878 28.68 83.644882 Q29.439999 83.484879 30.24 82.684883 L30.24 37.804882 L30.24 37.804882 Z" fill="rgba(0,0,0,1)" fill-rule="nonzero" stroke="none"/><path d="M80.479996 34.04488 Q82.479996 34.20488 83.760002 35.444881 Q85.040001 36.684883 85.040001 38.844883 Q85.040001 41.72488 82.879997 42.924881 Q81.839996 43.644882 80.32 43.644882 Q77.040001 43.644882 75.68 40.444881 Q75.519997 39.964882 75.519997 38.844883 Q75.519997 36.604881 76.919998 35.324883 Q78.32 34.04488 80.479996 34.04488 L80.479996 34.04488 Z M72.559998 53.084881 Q72.879997 53.084881 78.639999 52.644882 Q84.400002 52.20488 84.559998 52.20488 L84.800003 52.20488 L84.800003 82.604881 Q85.199997 83.404877 85.760002 83.604881 Q86.32 83.804878 88.559998 83.88488 L90.400002 83.88488 L90.400002 87.56488 L89.760002 87.56488 Q88.879997 87.324883 81.440002 87.324883 Q74.160004 87.324883 72.720001 87.56488 L72.080002 87.56488 L72.080002 83.88488 L73.360001 83.88488 L74.239998 83.88488 Q77.599998 83.88488 78.239998 82.764877 Q78.32 82.604881 78.32 71.164879 Q78.32 59.164879 78 58.364883 Q77.360001 56.764881 73.279999 56.764881 L72.400002 56.764881 L72.400002 54.924881 Q72.400002 53.084881 72.559998 53.084881 L72.559998 53.084881 Z" fill="rgba(0,0,0,1)" fill-rule="nonzero" stroke="none"/><path d="M127.502396 51.04248 Q127.502396 51.490482 127.166397 51.826481 Q126.830399 52.162479 126.326401 52.162479 Q126.046402 52.162479 125.094398 51.266479 Q124.142395 50.37048 119.830399 46.058479 L114.006393 40.234482 L108.126396 46.114479 Q102.190399 51.93848 102.0224 52.05048 Q101.798401 52.162479 101.630394 52.162479 Q101.182396 52.162479 100.818398 51.826481 Q100.454399 51.490482 100.454399 51.04248 Q100.454399 50.930481 100.566399 50.594482 Q100.734398 50.25848 106.502396 44.490479 L112.326401 38.666481 L106.502396 32.84248 Q100.734398 27.07448 100.566399 26.73848 Q100.454399 26.514481 100.454399 26.346479 Q100.454399 25.898479 100.790398 25.534481 Q101.126396 25.170481 101.574394 25.170481 Q101.686401 25.170481 102.0224 25.28248 Q102.190399 25.39448 108.126396 31.218481 L114.006393 37.09848 L119.830399 31.274481 Q124.142395 26.962481 125.094398 26.066481 Q126.046402 25.170481 126.326401 25.170481 Q126.830399 25.170481 127.166397 25.506479 Q127.502396 25.84248 127.502396 26.29048 Q127.502396 26.514481 127.390396 26.73848 Q127.278397 26.962481 121.454399 32.78648 L115.630402 38.666481 L121.454399 44.546482 Q127.278397 50.37048 127.390396 50.594482 Q127.502396 50.818481 127.502396 51.04248 L127.502396 51.04248 Z" fill="rgba(0,0,0,1)" fill-rule="nonzero" stroke="none"/><path d="M99.390396 72.492882 Q98.830399 71.932877 98.298401 71.820877 Q97.766396 71.708878 95.470398 71.652878 L93.622398 71.652878 L93.622398 69.076881 L94.238396 69.076881 Q95.246399 69.244881 102.414398 69.244881 Q110.7024 69.244881 111.710396 69.076881 L112.382401 69.076881 L112.382401 71.652878 L110.870399 71.652878 Q108.798401 71.652878 108.182396 71.708878 Q106.614395 71.764877 106.166397 71.904877 Q105.718399 72.044876 105.270401 72.492882 L105.214401 88.172882 Q105.214401 103.852882 105.270401 104.020882 Q105.326401 104.244881 105.4944 104.41288 Q105.830399 104.692886 109.750397 104.692886 Q113.726395 104.692886 115.182396 104.35688 Q118.486397 103.404884 120.054398 101.220886 Q121.622398 99.03688 122.238396 94.948883 Q122.238396 94.668884 122.322395 93.96888 Q122.406395 93.268883 122.490402 92.708885 Q122.574402 92.14888 122.574402 92.09288 Q122.574402 92.03688 123.694397 92.03688 L124.8144 92.03688 L124.8144 92.316879 Q124.702393 92.484879 124.030396 99.680885 Q123.358398 106.876884 123.246399 107.044884 L123.246399 107.324883 L93.622398 107.324883 L93.622398 104.748886 L95.470398 104.748886 Q97.766396 104.692886 98.298401 104.580879 Q98.830399 104.46888 99.390396 103.908882 L99.390396 72.492882 L99.390396 72.492882 Z" fill="rgba(0,0,0,1)" fill-rule="nonzero" stroke="none"/><path d="M134.558395 69.860886 Q135.958405 69.972885 136.854401 70.840881 Q137.750397 71.708878 137.750397 73.220886 Q137.750397 75.236877 136.238403 76.076881 Q135.510391 76.580879 134.446396 76.580879 Q132.150391 76.580879 131.198395 74.340881 Q131.086395 74.004883 131.086395 73.220886 Q131.086395 71.652878 132.066391 70.756882 Q133.046402 69.860886 134.558395 69.860886 L134.558395 69.860886 Z M129.014404 83.188881 Q129.238403 83.188881 133.270401 82.880882 Q137.302399 82.572884 137.414398 82.572884 L137.582397 82.572884 L137.582397 103.852882 Q137.862396 104.41288 138.254395 104.552879 Q138.646393 104.692886 140.214401 104.748886 L141.502396 104.748886 L141.502396 107.324883 L141.054398 107.324883 Q140.4384 107.156883 135.230392 107.156883 Q130.134399 107.156883 129.126404 107.324883 L128.678391 107.324883 L128.678391 104.748886 L129.574402 104.748886 L130.190399 104.748886 Q132.542404 104.748886 132.990402 103.964882 Q133.046402 103.852882 133.046402 95.844879 Q133.046402 87.444885 132.822403 86.88488 Q132.37439 85.764877 129.518402 85.764877 L128.90239 85.764877 L128.90239 84.476883 Q128.90239 83.188881 129.014404 83.188881 L129.014404 83.188881 Z" fill="rgba(0,0,0,1)" fill-rule="nonzero" stroke="none"/><path d="M147.146072 103.964882 Q147.146072 102.56488 148.070084 101.556885 Q148.99408 100.548882 150.450073 100.548882 Q152.578079 100.548882 153.558075 102.340881 Q154.538071 104.132881 154.538071 106.876884 Q154.538071 107.94088 154.426071 108.836884 Q153.642075 113.820885 150.338074 117.404884 Q149.554077 118.188881 149.330078 118.188881 Q149.162079 118.188881 148.714081 117.740883 Q148.266083 117.292885 148.098083 117.068886 Q148.042084 116.788879 148.658081 116.116882 Q152.130081 112.588882 152.46608 107.492882 L152.46608 106.820885 Q152.41008 106.820885 152.130081 106.988884 Q151.402069 107.324883 150.618073 107.324883 Q149.162079 107.324883 148.154083 106.344879 Q147.146072 105.364883 147.146072 103.964882 L147.146072 103.964882 Z" fill="rgba(0,0,0,1)" fill-rule="nonzero" stroke="none"/><path d="M185.272873 107.324883 Q184.320862 107.156883 176.368866 107.156883 Q168.52887 107.156883 167.576874 107.324883 L166.904861 107.324883 L166.904861 104.748886 L168.36087 104.748886 Q171.608871 104.748886 172.560867 104.580879 Q173.008865 104.524879 173.904861 103.908882 L173.904861 74.956879 Q173.792862 74.956879 173.456863 75.124878 Q170.880875 76.132881 167.688873 76.188881 L166.624863 76.188881 L166.624863 73.612885 L167.688873 73.612885 Q172.392868 73.444885 175.52887 71.484879 Q176.536865 70.924881 177.264862 70.196884 Q177.376862 70.028885 177.936874 70.028885 Q178.496872 70.028885 178.88887 70.364883 L178.88887 87.108879 L178.94487 103.908882 Q179.784866 104.748886 182.584869 104.748886 L184.432861 104.748886 L185.88887 104.748886 L185.88887 107.324883 L185.272873 107.324883 L185.272873 107.324883 Z" fill="rgba(0,0,0,1)" fill-rule="nonzero" stroke="none"/><path d="M194.680862 93.324883 Q194.680862 92.596878 195.464874 92.20488 L228.00087 92.20488 Q228.840866 92.652878 228.840866 93.324883 Q228.840866 93.99688 228.00087 94.444885 L195.464874 94.444885 Q194.680862 94.052879 194.680862 93.324883 L194.680862 93.324883 Z" fill="rgba(0,0,0,1)" fill-rule="nonzero" stroke="none"/><path d="M239.692551 83.30088 Q238.124542 83.30088 237.228546 82.292877 Q236.33255 81.284882 236.33255 79.82888 Q236.33255 75.796883 239.384552 72.91288 Q242.436554 70.028885 246.692551 70.028885 Q251.508545 70.028885 254.672546 72.632881 Q257.836548 75.236877 258.564545 79.436882 Q258.676544 80.444885 258.676544 81.284882 Q258.676544 84.532883 256.716553 87.388885 Q255.148544 89.740883 250.38855 93.82888 Q248.372543 95.56488 244.788544 98.980881 L241.484543 102.116882 L245.74054 102.172882 Q254.532547 102.172882 255.092545 101.892883 Q255.316544 101.836884 255.652542 100.716881 Q255.876541 100.100883 256.436554 96.908882 L256.436554 96.740883 L258.676544 96.740883 L258.676544 96.908882 L257.108551 107.156883 L257.108551 107.324883 L236.33255 107.324883 L236.33255 106.26088 Q236.33255 105.140884 236.44455 104.972885 Q236.500549 104.860886 241.148544 99.652885 Q247.252548 92.876884 248.988541 90.692886 Q252.74054 85.596878 252.74054 81.340881 Q252.74054 77.644882 250.808548 75.152878 Q248.876541 72.660881 245.404541 72.660881 Q242.156555 72.660881 240.140549 75.572884 Q240.028549 75.796883 239.80455 76.188881 Q239.636551 76.46888 239.636551 76.524879 Q239.636551 76.580879 239.91655 76.580879 Q241.316544 76.580879 242.18454 77.588882 Q243.052551 78.596878 243.052551 79.94088 Q243.052551 81.340881 242.12854 82.320877 Q241.204544 83.30088 239.692551 83.30088 L239.692551 83.30088 Z" fill="rgba(0,0,0,1)" fill-rule="nonzero" stroke="none"/><path d="M264.780548 91.756882 Q264.44455 91.420883 264.44455 91.140884 Q264.668549 89.628883 266.180573 87.276886 Q268.812561 83.30088 272.788574 82.684883 Q273.572571 82.572884 273.964569 82.572884 Q275.924561 82.572884 277.576569 83.580879 Q279.228577 84.588882 279.956573 86.100883 Q280.68457 85.14888 280.85257 84.924881 Q282.924561 82.572884 285.612549 82.572884 Q287.908569 82.572884 289.336548 83.888885 Q290.764557 85.20488 290.764557 87.108879 Q290.764557 88.844879 289.784576 90.020882 Q288.804565 91.196884 287.180573 91.196884 Q286.116577 91.196884 285.44455 90.580879 Q284.772552 89.964882 284.772552 88.956879 Q284.772552 86.380882 287.572571 85.428879 Q287.572571 85.372879 286.956573 85.03688 Q286.396576 84.700882 285.33255 84.700882 Q284.604553 84.700882 284.268555 84.812881 Q282.140564 85.708878 281.132568 88.508881 Q280.964569 88.956879 279.508575 94.752884 Q278.052551 100.548882 277.940552 101.276886 Q277.772552 102.116882 277.772552 102.956879 Q277.772552 104.30088 278.556549 105.084885 Q279.340576 105.868881 280.628571 105.868881 Q282.98056 105.868881 284.884552 103.880882 Q286.788574 101.892883 287.460571 99.484879 Q287.628571 98.924881 287.79657 98.840881 Q287.964569 98.756882 288.692566 98.756882 Q289.756561 98.756882 289.756561 99.20488 Q289.756561 99.26088 289.644562 99.820885 Q288.692566 103.292885 285.724548 105.868881 Q283.09256 107.94088 280.180573 107.94088 Q276.260559 107.94088 274.244568 104.41288 Q272.620575 106.932884 270.100555 107.772881 Q269.596558 107.88488 268.644562 107.88488 Q265.396576 107.88488 264.052551 105.588882 Q263.492554 104.636879 263.492554 103.348885 Q263.492554 101.668884 264.500549 100.492882 Q265.508575 99.316879 267.076569 99.316879 Q269.484558 99.316879 269.484558 101.668884 Q269.484558 103.740883 267.524567 104.692886 Q267.412567 104.748886 267.244568 104.832886 Q267.076569 104.916885 266.964569 104.972885 Q266.85257 105.028885 266.79657 105.028885 L266.628571 105.084885 Q266.628571 105.252884 267.468567 105.588882 Q268.140564 105.868881 268.924561 105.868881 Q270.940552 105.868881 272.396576 103.348885 Q273.012573 102.340881 274.580566 96.068878 Q274.916565 94.780884 275.308563 93.212883 Q275.700562 91.644882 275.896576 90.804886 Q276.09256 89.964882 276.14856 89.796883 Q276.428558 88.284882 276.428558 87.612885 Q276.428558 86.268883 275.700562 85.484879 Q274.972565 84.700882 273.68457 84.700882 Q271.164551 84.700882 269.316559 86.632881 Q267.468567 88.56488 266.74057 91.084885 Q266.628571 91.588882 266.488556 91.672882 Q266.348572 91.756882 265.564575 91.756882 L264.780548 91.756882 L264.780548 91.756882 Z" fill="rgba(0,0,0,1)" fill-rule="nonzero" stroke="none"/><path d="M308.098236 37.804882 Q307.298248 37.004883 306.538239 36.844883 Q305.778229 36.684883 302.49823 36.604881 L299.858246 36.604881 L299.858246 32.924881 L308.338226 32.924881 Q316.738251 32.924881 317.058228 33.164883 L317.458252 33.56488 Q334.178223 77.56488 334.178223 77.644882 Q341.058228 59.56488 347.378235 42.684883 Q349.778229 36.284882 350.338226 34.924881 Q350.898254 33.56488 351.298248 33.164883 Q351.618225 32.924881 360.01825 32.924881 L368.49823 32.924881 L368.49823 36.604881 L365.858246 36.604881 Q362.578247 36.684883 361.73822 36.844883 Q360.898224 37.004883 360.338226 37.804882 L360.338226 82.684883 Q360.898224 83.484879 361.73822 83.644882 Q362.578247 83.804878 365.858246 83.88488 L368.49823 83.88488 L368.49823 87.56488 L367.618225 87.56488 Q366.338226 87.324883 356.418243 87.324883 Q346.49823 87.324883 345.218231 87.56488 L344.338226 87.56488 L344.338226 83.88488 L346.978241 83.88488 Q350.25824 83.804878 351.01825 83.644882 Q351.778229 83.484879 352.578247 82.684883 L352.578247 59.804878 Q352.578247 53.644882 352.578247 50.684879 Q352.578247 47.72488 352.578247 43.88488 Q352.578247 40.04488 352.578247 38.524883 L352.49823 37.004883 Q333.858246 86.444878 333.538239 87.004883 Q333.218231 87.484879 331.938232 87.484879 Q330.658234 87.484879 330.338226 87.004883 L311.618225 37.644882 L311.618225 39.084881 Q311.538239 40.524883 311.538239 44.124882 Q311.538239 47.72488 311.538239 50.524879 Q311.538239 53.324883 311.538239 59.084881 L311.618225 80.684883 Q312.578247 83.56488 318.418243 83.88488 L319.778229 83.88488 L319.778229 87.56488 L319.058228 87.56488 Q318.01825 87.324883 309.858246 87.324883 Q301.538239 87.324883 300.49823 87.56488 L299.858246 87.56488 L299.858246 83.88488 L301.218231 83.88488 Q306.658234 83.56488 307.858246 81.164879 L308.098236 80.684883 L308.098236 37.804882 L308.098236 37.804882 Z" fill="rgba(0,0,0,1)" fill-rule="nonzero" stroke="none"/><path d="M397.191833 54.844883 Q400.711823 51.324883 405.27182 51.324883 Q407.27182 51.324883 408.471832 52.56488 Q409.671814 53.804882 409.671814 55.88488 Q409.671814 57.164879 408.871826 57.964882 Q408.071838 58.764881 406.791809 58.764881 Q404.231812 58.764881 403.831818 56.364883 Q403.671814 55.244881 404.071838 54.684879 Q404.071838 54.604881 404.151825 54.444881 L404.151825 54.36488 Q403.831818 54.444881 403.431824 54.524879 Q401.511841 54.844883 399.911835 56.124882 Q399.27182 56.524879 399.27182 56.684883 Q399.431824 56.844879 399.591827 57.084881 Q402.231812 60.364883 402.231812 64.20488 Q402.231812 67.484879 400.071838 70.604881 Q396.311829 76.124878 388.631836 76.124878 Q384.79184 76.124878 380.711823 73.88488 Q379.831818 75.484879 379.831818 76.924881 Q379.831818 79.724884 381.911835 81.084877 Q382.631836 81.56488 383.311829 81.604881 Q383.991821 81.644882 389.03183 81.724884 Q395.751831 81.804878 397.671814 82.20488 Q406.711823 83.56488 408.311829 91.164879 Q408.471832 91.804878 408.471832 93.324883 Q408.471832 94.764877 408.311829 95.244881 Q407.191833 99.324883 402.151825 101.684883 Q397.111816 104.044876 390.871826 104.044876 Q384.311829 104.044876 379.431824 101.56488 Q374.471832 99.164879 373.351837 95.244881 Q373.191833 94.764877 373.191833 93.56488 Q373.191833 90.284882 375.671814 87.964882 Q376.871826 86.764877 378.231812 86.124878 L379.111816 85.644882 Q376.231812 83.164879 376.231812 78.924881 Q376.231812 75.244881 378.551819 72.124878 Q375.03183 68.604881 375.03183 64.20488 Q375.03183 60.844879 377.191833 57.72488 Q378.871826 55.244881 381.911835 53.72488 Q384.951813 52.20488 388.711823 52.20488 Q392.79184 52.20488 396.311829 54.284882 L397.191833 54.844883 L397.191833 54.844883 Z M382.231812 64.20488 Q382.231812 68.524879 383.591827 70.764877 Q384.951813 73.004883 388.631836 73.004883 Q391.191833 73.004883 392.79184 71.684883 Q394.391815 70.364883 394.79184 68.20488 Q395.03183 66.924881 395.03183 64.20488 Q395.03183 61.484879 394.79184 60.124882 Q393.831818 55.244881 388.551819 55.244881 Q386.231812 55.244881 384.551819 56.56488 Q382.871826 57.88488 382.471832 60.124882 Q382.231812 61.404881 382.231812 64.20488 L382.231812 64.20488 Z M400.871826 89.404877 Q399.111816 88.20488 396.911835 87.88488 Q394.711823 87.56488 390.631836 87.56488 L388.311829 87.56488 Q382.951813 87.56488 381.911835 88.044884 Q380.311829 88.764877 379.391815 90.284882 Q378.471832 91.804878 378.471832 93.484879 Q378.471832 94.364883 378.711823 95.084877 Q379.351837 96.924881 381.591827 98.484879 Q383.831818 100.044876 386.79184 100.604881 Q388.231812 100.924881 390.871826 100.924881 Q393.431824 100.924881 394.871826 100.604881 Q397.831818 99.964882 400.111816 98.404877 Q402.391815 96.844879 402.951813 95.004883 Q403.111816 94.604881 403.111816 93.56488 Q403.111816 90.844879 400.871826 89.404877 L400.871826 89.404877 Z" fill="rgba(0,0,0,1)" fill-rule="nonzero" stroke="none"/><path d="M440.490143 38.722481 Q440.490143 43.25848 437.242126 46.422482 Q433.994141 49.586479 429.626129 49.586479 Q424.922119 49.586479 421.730133 46.226482 Q418.706116 43.090481 418.706116 38.610481 Q418.706116 34.074478 421.870117 30.93848 Q425.034119 27.802481 429.570129 27.802481 Q434.274139 27.802481 437.466125 31.162479 Q440.490143 34.298481 440.490143 38.722481 L440.490143 38.722481 Z" fill="rgba(0,0,0,1)" fill-rule="nonzero" stroke="none"/><path d="M419.151031 72.492882 Q418.591034 71.932877 418.059021 71.820877 Q417.527039 71.708878 415.231018 71.652878 L413.383026 71.652878 L413.383026 69.076881 L413.999023 69.076881 Q415.007019 69.244881 422.175018 69.244881 Q430.463043 69.244881 431.471039 69.076881 L432.143036 69.076881 L432.143036 71.652878 L430.631042 71.652878 Q428.559021 71.652878 427.943024 71.708878 Q426.375031 71.764877 425.927032 71.904877 Q425.479034 72.044876 425.031036 72.492882 L424.975037 88.172882 Q424.975037 103.852882 425.031036 104.020882 Q425.087036 104.244881 425.255035 104.41288 Q425.591034 104.692886 429.511047 104.692886 Q433.48703 104.692886 434.943024 104.35688 Q438.24704 103.404884 439.815033 101.220886 Q441.383026 99.03688 441.999023 94.948883 Q441.999023 94.668884 442.083038 93.96888 Q442.167023 93.268883 442.251038 92.708885 Q442.335022 92.14888 442.335022 92.09288 Q442.335022 92.03688 443.455017 92.03688 L444.575043 92.03688 L444.575043 92.316879 Q444.463043 92.484879 443.791046 99.680885 Q443.119019 106.876884 443.007019 107.044884 L443.007019 107.324883 L413.383026 107.324883 L413.383026 104.748886 L415.231018 104.748886 Q417.527039 104.692886 418.059021 104.580879 Q418.591034 104.46888 419.151031 103.908882 L419.151031 72.492882 L419.151031 72.492882 Z" fill="rgba(0,0,0,1)" fill-rule="nonzero" stroke="none"/><path d="M454.319031 69.860886 Q455.719025 69.972885 456.615021 70.840881 Q457.511047 71.708878 457.511047 73.220886 Q457.511047 75.236877 455.999023 76.076881 Q455.271027 76.580879 454.207031 76.580879 Q451.911041 76.580879 450.959045 74.340881 Q450.847046 74.004883 450.847046 73.220886 Q450.847046 71.652878 451.827026 70.756882 Q452.807037 69.860886 454.319031 69.860886 L454.319031 69.860886 Z M448.775024 83.188881 Q448.999023 83.188881 453.031036 82.880882 Q457.063019 82.572884 457.175018 82.572884 L457.343018 82.572884 L457.343018 103.852882 Q457.623047 104.41288 458.015045 104.552879 Q458.407043 104.692886 459.975037 104.748886 L461.263031 104.748886 L461.263031 107.324883 L460.815033 107.324883 Q460.199036 107.156883 454.991028 107.156883 Q449.89502 107.156883 448.887024 107.324883 L448.439026 107.324883 L448.439026 104.748886 L449.335022 104.748886 L449.951019 104.748886 Q452.30304 104.748886 452.751038 103.964882 Q452.807037 103.852882 452.807037 95.844879 Q452.807037 87.444885 452.583038 86.88488 Q452.13504 85.764877 449.279022 85.764877 L448.663025 85.764877 L448.663025 84.476883 Q448.663025 83.188881 448.775024 83.188881 L448.775024 83.188881 Z" fill="rgba(0,0,0,1)" fill-rule="nonzero" stroke="none"/><path d="M466.906708 103.964882 Q466.906708 102.56488 467.830688 101.556885 Q468.7547 100.548882 470.210693 100.548882 Q472.338684 100.548882 473.318695 102.340881 Q474.298706 104.132881 474.298706 106.876884 Q474.298706 107.94088 474.186707 108.836884 Q473.40271 113.820885 470.098694 117.404884 Q469.314697 118.188881 469.090698 118.188881 Q468.922699 118.188881 468.474701 117.740883 Q468.026703 117.292885 467.858704 117.068886 Q467.802704 116.788879 468.418701 116.116882 Q471.890686 112.588882 472.226685 107.492882 L472.226685 106.820885 Q472.170685 106.820885 471.890686 106.988884 Q471.162689 107.324883 470.378693 107.324883 Q468.922699 107.324883 467.914703 106.344879 Q466.906708 105.364883 466.906708 103.964882 L466.906708 103.964882 Z" fill="rgba(0,0,0,1)" fill-rule="nonzero" stroke="none"/><path d="M484.985474 91.756882 Q484.649475 91.420883 484.649475 91.140884 Q484.873474 89.628883 486.385498 87.276886 Q489.017487 83.30088 492.9935 82.684883 Q493.777496 82.572884 494.169495 82.572884 Q496.129486 82.572884 497.781494 83.580879 Q499.433502 84.588882 500.161499 86.100883 Q500.889496 85.14888 501.057495 84.924881 Q503.129486 82.572884 505.817474 82.572884 Q508.113495 82.572884 509.541504 83.888885 Q510.969482 85.20488 510.969482 87.108879 Q510.969482 88.844879 509.989502 90.020882 Q509.009491 91.196884 507.385498 91.196884 Q506.321503 91.196884 505.649475 90.580879 Q504.977478 89.964882 504.977478 88.956879 Q504.977478 86.380882 507.777496 85.428879 Q507.777496 85.372879 507.161499 85.03688 Q506.601501 84.700882 505.537476 84.700882 Q504.809479 84.700882 504.47348 84.812881 Q502.34549 85.708878 501.337494 88.508881 Q501.169495 88.956879 499.713501 94.752884 Q498.257477 100.548882 498.145477 101.276886 Q497.977478 102.116882 497.977478 102.956879 Q497.977478 104.30088 498.761475 105.084885 Q499.545502 105.868881 500.833496 105.868881 Q503.185486 105.868881 505.089478 103.880882 Q506.9935 101.892883 507.665497 99.484879 Q507.833496 98.924881 508.001495 98.840881 Q508.169495 98.756882 508.897491 98.756882 Q509.961487 98.756882 509.961487 99.20488 Q509.961487 99.26088 509.849487 99.820885 Q508.897491 103.292885 505.929504 105.868881 Q503.297485 107.94088 500.385498 107.94088 Q496.465485 107.94088 494.449493 104.41288 Q492.8255 106.932884 490.305481 107.772881 Q489.801483 107.88488 488.849487 107.88488 Q485.601501 107.88488 484.257477 105.588882 Q483.697479 104.636879 483.697479 103.348885 Q483.697479 101.668884 484.705475 100.492882 Q485.713501 99.316879 487.281494 99.316879 Q489.689484 99.316879 489.689484 101.668884 Q489.689484 103.740883 487.729492 104.692886 Q487.617493 104.748886 487.449493 104.832886 Q487.281494 104.916885 487.169495 104.972885 Q487.057495 105.028885 487.001495 105.028885 L486.833496 105.084885 Q486.833496 105.252884 487.673492 105.588882 Q488.34549 105.868881 489.129486 105.868881 Q491.145477 105.868881 492.601501 103.348885 Q493.217499 102.340881 494.785492 96.068878 Q495.12149 94.780884 495.513489 93.212883 Q495.905487 91.644882 496.101501 90.804886 Q496.297485 89.964882 496.353485 89.796883 Q496.633484 88.284882 496.633484 87.612885 Q496.633484 86.268883 495.905487 85.484879 Q495.17749 84.700882 493.889496 84.700882 Q491.369476 84.700882 489.521484 86.632881 Q487.673492 88.56488 486.945496 91.084885 Q486.833496 91.588882 486.693481 91.672882 Q486.553497 91.756882 485.769501 91.756882 L484.985474 91.756882 L484.985474 91.756882 Z" fill="rgba(0,0,0,1)" fill-rule="nonzero" stroke="none"/><path d="M562.383179 32.924881 Q563.743164 32.924881 566.743164 33.004883 Q569.743164 33.084881 571.183167 33.084881 Q576.703186 33.084881 578.143188 32.924881 L578.703186 32.924881 Q579.183167 33.404881 579.223145 33.604881 Q579.263184 33.804882 579.023193 35.084881 Q578.943176 35.324883 578.863159 35.644882 Q578.783142 35.964882 578.743164 36.084881 Q578.703186 36.20488 578.623169 36.364883 Q578.543152 36.524883 578.34314 36.524883 Q578.143188 36.524883 577.903137 36.56488 Q577.663147 36.604881 577.183167 36.604881 Q572.863159 36.844883 570.303162 39.164883 Q570.143188 39.324883 569.783142 39.72488 Q569.423157 40.124882 569.34314 40.20488 Q569.103149 40.684883 568.783142 41.004883 Q539.34314 88.764877 538.863159 89.004883 L538.463135 89.244881 L537.023193 89.324883 Q535.583191 89.324883 535.34314 89.164879 Q535.023193 89.004883 535.023193 88.764877 Q534.783142 88.364883 531.863159 63.084881 Q528.943176 37.804882 528.783142 37.484882 Q528.303162 36.604881 524.703186 36.604881 L523.823181 36.604881 L522.463135 36.604881 Q521.983154 36.20488 521.903137 35.924881 Q521.823181 35.644882 522.143188 34.444881 Q522.463135 33.404881 522.943176 32.924881 L523.823181 32.924881 Q527.183167 33.164883 532.223145 33.164883 Q541.663147 33.164883 543.34314 32.924881 L544.143188 32.924881 Q544.623169 33.404881 544.663147 33.604881 Q544.703186 33.804882 544.463135 35.084881 Q544.143188 36.20488 543.743164 36.604881 L542.063171 36.604881 Q540.303162 36.764881 539.663147 36.764881 Q537.34314 37.164883 537.103149 37.964882 Q537.103149 38.124882 539.423157 58.084881 Q541.743164 78.044884 541.823181 78.124878 L547.663147 68.764877 Q553.503174 59.404881 559.34314 49.88488 Q565.183167 40.36488 565.34314 40.04488 Q565.743164 39.244881 565.743164 38.844883 Q565.743164 37.004883 562.143188 36.604881 Q560.623169 36.604881 560.623169 35.804882 Q560.623169 35.404881 560.863159 34.684883 Q561.103149 33.56488 561.34314 33.244881 Q561.583191 32.924881 562.383179 32.924881 L562.383179 32.924881 Z" fill="rgba(0,0,0,1)" fill-rule="nonzero" stroke="none"/><path d="M593.275208 21.30648 Q594.731201 21.30648 595.795166 22.31448 Q596.859192 23.322479 596.859192 24.610479 Q596.859192 24.89048 596.747192 25.45048 Q596.691223 25.84248 591.847168 37.93848 Q587.003174 50.034481 586.891174 50.146481 Q586.667175 50.37048 585.323181 49.978481 Q583.867188 49.47448 583.867188 49.250481 Q583.867188 48.858482 586.97522 36.25848 Q590.083191 23.65848 590.36322 23.09848 Q591.147217 21.30648 593.275208 21.30648 L593.275208 21.30648 Z" fill="rgba(0,0,0,1)" fill-rule="nonzero" stroke="none"/><path d="M589.355225 72.492882 Q588.795166 71.932877 588.263184 71.820877 Q587.731201 71.708878 585.435181 71.652878 L583.587219 71.652878 L583.587219 69.076881 L584.203186 69.076881 Q585.211182 69.244881 592.379211 69.244881 Q600.667175 69.244881 601.675171 69.076881 L602.347168 69.076881 L602.347168 71.652878 L600.835205 71.652878 Q598.763184 71.652878 598.147217 71.708878 Q596.579224 71.764877 596.131226 71.904877 Q595.683167 72.044876 595.235168 72.492882 L595.179199 88.172882 Q595.179199 103.852882 595.235168 104.020882 Q595.291199 104.244881 595.459167 104.41288 Q595.795166 104.692886 599.71521 104.692886 Q603.691223 104.692886 605.147217 104.35688 Q608.451172 103.404884 610.019165 101.220886 Q611.587219 99.03688 612.203186 94.948883 Q612.203186 94.668884 612.28717 93.96888 Q612.371216 93.268883 612.4552 92.708885 Q612.539185 92.14888 612.539185 92.09288 Q612.539185 92.03688 613.65918 92.03688 L614.779175 92.03688 L614.779175 92.316879 Q614.667175 92.484879 613.995178 99.680885 Q613.323181 106.876884 613.211182 107.044884 L613.211182 107.324883 L583.587219 107.324883 L583.587219 104.748886 L585.435181 104.748886 Q587.731201 104.692886 588.263184 104.580879 Q588.795166 104.46888 589.355225 103.908882 L589.355225 72.492882 L589.355225 72.492882 Z" fill="rgba(0,0,0,1)" fill-rule="nonzero" stroke="none"/><path d="M624.523193 69.860886 Q625.923218 69.972885 626.819214 70.840881 Q627.71521 71.708878 627.71521 73.220886 Q627.71521 75.236877 626.203186 76.076881 Q625.47522 76.580879 624.411194 76.580879 Q622.115173 76.580879 621.163208 74.340881 Q621.051208 74.004883 621.051208 73.220886 Q621.051208 71.652878 622.031189 70.756882 Q623.011169 69.860886 624.523193 69.860886 L624.523193 69.860886 Z M618.979187 83.188881 Q619.203186 83.188881 623.235168 82.880882 Q627.267212 82.572884 627.379211 82.572884 L627.54718 82.572884 L627.54718 103.852882 Q627.827209 104.41288 628.219177 104.552879 Q628.611206 104.692886 630.179199 104.748886 L631.467224 104.748886 L631.467224 107.324883 L631.019165 107.324883 Q630.403198 107.156883 625.19519 107.156883 Q620.099182 107.156883 619.091187 107.324883 L618.643188 107.324883 L618.643188 104.748886 L619.539185 104.748886 L620.155212 104.748886 Q622.507202 104.748886 622.9552 103.964882 Q623.011169 103.852882 623.011169 95.844879 Q623.011169 87.444885 622.78717 86.88488 Q622.339172 85.764877 619.483215 85.764877 L618.867188 85.764877 L618.867188 84.476883 Q618.867188 83.188881 618.979187 83.188881 L618.979187 83.188881 Z" fill="rgba(0,0,0,1)" fill-rule="nonzero" stroke="none"/><path d="M637.11084 103.964882 Q637.11084 102.56488 638.034851 101.556885 Q638.958862 100.548882 640.414856 100.548882 Q642.542847 100.548882 643.522888 102.340881 Q644.502869 104.132881 644.502869 106.876884 Q644.502869 107.94088 644.390869 108.836884 Q643.606873 113.820885 640.302856 117.404884 Q639.51886 118.188881 639.294861 118.188881 Q639.126831 118.188881 638.678833 117.740883 Q638.230835 117.292885 638.062866 117.068886 Q638.006836 116.788879 638.622864 116.116882 Q642.094849 112.588882 642.430847 107.492882 L642.430847 106.820885 Q642.374878 106.820885 642.094849 106.988884 Q641.366882 107.324883 640.582886 107.324883 Q639.126831 107.324883 638.118835 106.344879 Q637.11084 105.364883 637.11084 103.964882 L637.11084 103.964882 Z" fill="rgba(0,0,0,1)" fill-rule="nonzero" stroke="none"/><path d="M655.189636 91.756882 Q654.853638 91.420883 654.853638 91.140884 Q655.077637 89.628883 656.589661 87.276886 Q659.22168 83.30088 663.197632 82.684883 Q663.981628 82.572884 664.373657 82.572884 Q666.333679 82.572884 667.985657 83.580879 Q669.637634 84.588882 670.365662 86.100883 Q671.093628 85.14888 671.261658 84.924881 Q673.333679 82.572884 676.021667 82.572884 Q678.317627 82.572884 679.745667 83.888885 Q681.173645 85.20488 681.173645 87.108879 Q681.173645 88.844879 680.193665 90.020882 Q679.213623 91.196884 677.589661 91.196884 Q676.525635 91.196884 675.853638 90.580879 Q675.181641 89.964882 675.181641 88.956879 Q675.181641 86.380882 677.981628 85.428879 Q677.981628 85.372879 677.365662 85.03688 Q676.805664 84.700882 675.741638 84.700882 Q675.013672 84.700882 674.677673 84.812881 Q672.549622 85.708878 671.541626 88.508881 Q671.373657 88.956879 669.917664 94.752884 Q668.46167 100.548882 668.34967 101.276886 Q668.181641 102.116882 668.181641 102.956879 Q668.181641 104.30088 668.965637 105.084885 Q669.749634 105.868881 671.037659 105.868881 Q673.389648 105.868881 675.29364 103.880882 Q677.197632 101.892883 677.869629 99.484879 Q678.037659 98.924881 678.205627 98.840881 Q678.373657 98.756882 679.101624 98.756882 Q680.165649 98.756882 680.165649 99.20488 Q680.165649 99.26088 680.05365 99.820885 Q679.101624 103.292885 676.133667 105.868881 Q673.501648 107.94088 670.589661 107.94088 Q666.669678 107.94088 664.653625 104.41288 Q663.029663 106.932884 660.509644 107.772881 Q660.005676 107.88488 659.05365 107.88488 Q655.805664 107.88488 654.46167 105.588882 Q653.901672 104.636879 653.901672 103.348885 Q653.901672 101.668884 654.909668 100.492882 Q655.917664 99.316879 657.485657 99.316879 Q659.893677 99.316879 659.893677 101.668884 Q659.893677 103.740883 657.933655 104.692886 Q657.821655 104.748886 657.653625 104.832886 Q657.485657 104.916885 657.373657 104.972885 Q657.261658 105.028885 657.205627 105.028885 L657.037659 105.084885 Q657.037659 105.252884 657.877625 105.588882 Q658.549622 105.868881 659.333679 105.868881 Q661.34967 105.868881 662.805664 103.348885 Q663.421631 102.340881 664.989624 96.068878 Q665.325623 94.780884 665.717651 93.212883 Q666.10968 91.644882 666.305664 90.804886 Q666.501648 89.964882 666.557678 89.796883 Q666.837646 88.284882 666.837646 87.612885 Q666.837646 86.268883 666.10968 85.484879 Q665.381653 84.700882 664.093628 84.700882 Q661.573669 84.700882 659.725647 86.632881 Q657.877625 88.56488 657.149658 91.084885 Q657.037659 91.588882 656.897644 91.672882 Q656.757629 91.756882 655.973633 91.756882 L655.189636 91.756882 L655.189636 91.756882 Z" fill="rgba(0,0,0,1)" fill-rule="nonzero" stroke="none"/><path d="M740.747314 67.004883 L741.227295 67.484879 L741.227295 68.684883 Q740.827332 75.88488 736.507324 81.404877 Q732.187317 86.924881 725.387329 88.684883 Q723.067322 89.244881 720.187317 89.244881 Q717.227295 89.244881 715.147339 88.764877 Q706.187317 87.004883 700.067322 80.284882 Q693.947327 73.56488 692.507324 63.644882 Q692.427307 62.924881 692.427307 60.20488 Q692.427307 57.56488 692.507324 56.764881 Q693.86731 47.004883 700.027344 40.244881 Q706.187317 33.484882 715.147339 31.644882 Q717.707336 31.164883 719.227295 31.164883 Q719.387329 31.164883 719.86731 31.20488 Q720.347351 31.244881 720.587341 31.244881 Q722.507324 31.244881 723.307312 31.404881 Q729.147339 32.444881 733.467346 36.684883 L734.507324 37.644882 L736.907349 34.524883 Q739.067322 31.56488 739.387329 31.244881 Q739.467346 31.244881 739.707336 31.20488 Q739.947327 31.164883 740.187317 31.164883 Q740.747314 31.164883 741.227295 31.644882 L741.227295 54.04488 L740.747314 54.524879 L738.027344 54.524879 Q737.547302 54.04488 737.467346 53.164883 Q736.747314 46.604881 733.627319 41.804882 Q730.507324 37.004883 726.027344 35.484882 Q724.507324 34.924881 722.027344 34.924881 Q713.707336 34.924881 708.1073 40.524883 Q701.787354 46.844883 701.787354 60.20488 Q701.787354 69.88488 704.827332 75.484879 Q707.307312 80.20488 711.907349 82.924881 Q716.507324 85.644882 722.187317 85.644882 Q728.027344 85.644882 732.347351 81.444878 Q736.667297 77.244881 737.627319 71.56488 Q738.027344 69.56488 738.027344 68.044876 Q738.027344 67.484879 738.507324 67.004883 L740.747314 67.004883 L740.747314 67.004883 Z" fill="rgba(0,0,0,1)" fill-rule="nonzero" stroke="none"/><path d="M747.964905 32.924881 Q748.364929 32.924881 754.244934 32.484882 Q760.124939 32.04488 760.284912 32.04488 L760.524902 32.04488 L760.524902 57.244881 Q760.524902 82.604881 760.604919 82.764877 Q761.244934 83.88488 764.604919 83.88488 L765.484924 83.88488 L766.764893 83.88488 L766.764893 87.56488 L766.124939 87.56488 Q764.684937 87.324883 757.32489 87.324883 Q749.484924 87.324883 748.444885 87.56488 L747.804932 87.56488 L747.804932 83.88488 L749.0849 83.88488 L749.964905 83.88488 Q753.32489 83.88488 753.964905 82.764877 L753.964905 82.124878 Q753.964905 81.404877 753.964905 80.284882 Q753.964905 79.164879 754.004944 77.644882 Q754.044922 76.124878 754.044922 74.164879 Q754.044922 72.20488 754.044922 70.164879 Q754.044922 68.124878 754.044922 65.764877 Q754.044922 63.404881 754.044922 61.244881 Q754.044922 58.284882 754.044922 54.964882 Q754.044922 51.644882 754.044922 49.004883 Q754.044922 46.36488 754.004944 44.164883 Q753.964905 41.964882 753.964905 40.684883 Q753.964905 39.404881 753.964905 39.324883 Q753.724915 37.804882 752.804932 37.284882 Q751.884888 36.764881 749.244934 36.604881 L747.804932 36.604881 L747.804932 34.764881 Q747.804932 32.924881 747.964905 32.924881 L747.964905 32.924881 Z" fill="rgba(0,0,0,1)" fill-rule="nonzero" stroke="none"/><path d="M803.227356 51.04248 Q803.227356 51.490482 802.891357 51.826481 Q802.555298 52.162479 802.051331 52.162479 Q801.771301 52.162479 800.819336 51.266479 Q799.86731 50.37048 795.555298 46.058479 L789.731323 40.234482 L783.851318 46.114479 Q777.915344 51.93848 777.747314 52.05048 Q777.523315 52.162479 777.355347 52.162479 Q776.907349 52.162479 776.543335 51.826481 Q776.179321 51.490482 776.179321 51.04248 Q776.179321 50.930481 776.291321 50.594482 Q776.459351 50.25848 782.227356 44.490479 L788.051331 38.666481 L782.227356 32.84248 Q776.459351 27.07448 776.291321 26.73848 Q776.179321 26.514481 776.179321 26.346479 Q776.179321 25.898479 776.51532 25.534481 Q776.851318 25.170481 777.299316 25.170481 Q777.411316 25.170481 777.747314 25.28248 Q777.915344 25.39448 783.851318 31.218481 L789.731323 37.09848 L795.555298 31.274481 Q799.86731 26.962481 800.819336 26.066481 Q801.771301 25.170481 802.051331 25.170481 Q802.555298 25.170481 802.891357 25.506479 Q803.227356 25.84248 803.227356 26.29048 Q803.227356 26.514481 803.115356 26.73848 Q803.003296 26.962481 797.179321 32.78648 L791.355347 38.666481 L797.179321 44.546482 Q803.003296 50.37048 803.115356 50.594482 Q803.227356 50.818481 803.227356 51.04248 L803.227356 51.04248 Z" fill="rgba(0,0,0,1)" fill-rule="nonzero" stroke="none"/><path d="M804.907349 92.932884 L805.243347 93.268883 L805.243347 94.108879 Q804.963318 99.14888 801.939331 103.012878 Q798.915344 106.876884 794.155334 108.108879 Q792.531311 108.500885 790.51532 108.500885 Q788.443298 108.500885 786.987305 108.164879 Q780.715332 106.932884 776.431335 102.228882 Q772.147339 97.524879 771.139343 90.580879 Q771.083313 90.076881 771.083313 88.172882 Q771.083313 86.324883 771.139343 85.764877 Q772.091309 78.932884 776.40332 74.200882 Q780.715332 69.46888 786.987305 68.180878 Q788.779297 67.844879 789.843323 67.844879 Q789.955322 67.844879 790.291321 67.872879 Q790.627319 67.900879 790.795349 67.900879 Q792.139343 67.900879 792.699341 68.012878 Q796.787354 68.740883 799.81134 71.708878 L800.539307 72.380882 L802.219299 70.196884 Q803.731323 68.124878 803.955322 67.900879 Q804.011353 67.900879 804.179321 67.872879 Q804.347351 67.844879 804.51532 67.844879 Q804.907349 67.844879 805.243347 68.180878 L805.243347 83.860886 L804.907349 84.196884 L803.003296 84.196884 Q802.667358 83.860886 802.611328 83.244881 Q802.1073 78.652878 799.92334 75.292877 Q797.739319 71.932877 794.603333 70.868881 Q793.539307 70.476883 791.803345 70.476883 Q785.979309 70.476883 782.059326 74.396881 Q777.635315 78.820877 777.635315 88.172882 Q777.635315 94.948883 779.763306 98.868881 Q781.499329 102.172882 784.719299 104.076881 Q787.939331 105.980881 791.915344 105.980881 Q796.003357 105.980881 799.027344 103.040886 Q802.051331 100.100883 802.723328 96.124878 Q803.003296 94.724884 803.003296 93.660881 Q803.003296 93.268883 803.339355 92.932884 L804.907349 92.932884 L804.907349 92.932884 Z" fill="rgba(0,0,0,1)" fill-rule="nonzero" stroke="none"/><path d="M809.959656 69.076881 Q810.239685 69.076881 814.355652 68.768883 Q818.47168 68.460876 818.583679 68.460876 L818.751648 68.460876 L818.751648 86.100883 Q818.751648 103.852882 818.807678 103.964882 Q819.255676 104.748886 821.607666 104.748886 L822.223633 104.748886 L823.11969 104.748886 L823.11969 107.324883 L822.671692 107.324883 Q821.663635 107.156883 816.511658 107.156883 Q811.023682 107.156883 810.295654 107.324883 L809.847656 107.324883 L809.847656 104.748886 L810.743652 104.748886 L811.35968 104.748886 Q813.71167 104.748886 814.159668 103.964882 L814.159668 103.516884 Q814.159668 103.012878 814.159668 102.228882 Q814.159668 101.444885 814.187683 100.380882 Q814.215637 99.316879 814.215637 97.944885 Q814.215637 96.572884 814.215637 95.144882 Q814.215637 93.716881 814.215637 92.06488 Q814.215637 90.41288 814.215637 88.900879 Q814.215637 86.82888 814.215637 84.504883 Q814.215637 82.180878 814.215637 80.332886 Q814.215637 78.484879 814.187683 76.944885 Q814.159668 75.404884 814.159668 74.508881 Q814.159668 73.612885 814.159668 73.556885 Q813.991638 72.492882 813.347656 72.128876 Q812.703674 71.764877 810.855652 71.652878 L809.847656 71.652878 L809.847656 70.364883 Q809.847656 69.076881 809.959656 69.076881 L809.959656 69.076881 Z" fill="rgba(0,0,0,1)" fill-rule="nonzero" stroke="none"/></svg>