<svg xmlns="http://www.w3.org/2000/svg" viewBox="0 0 40 51.2224" width="40pt" height="51.2224pt"><path d="M14.639999 29.0224 Q13.72 29.0224 13.12 28.382401 Q12.52 27.742401 12.52 26.8624 Q12.52 26.302401 12.84 25.582401 Q13.36 24.502401 14.92 23.902401 Q16.48 23.302401 18.720001 23.302401 Q21.360001 23.302401 23.299999 24.502401 Q25.24 25.7024 25.84 27.622402 Q26.039999 28.1824 26.059999 28.882401 Q26.08 29.582401 26.08 33.462402 Q26.08 37.382401 26.1 38.0424 Q26.119999 38.7024 26.32 39.062401 Q26.559999 39.622402 27.119999 39.622402 Q27.639999 39.622402 27.879999 39.062401 Q28.119999 38.582401 28.119999 36.8624 L28.119999 35.422401 L29.719999 35.422401 L29.719999 36.982399 Q29.68 38.582401 29.6 38.8624 Q29.24 39.982399 28.279999 40.722401 Q27.32 41.462402 26 41.462402 Q25 41.462402 24.219999 40.762402 Q23.439999 40.062401 23.16 39.062401 L23.16 38.902401 Q23.040001 39.0224 22.68 39.442402 Q22.32 39.8624 22.16 40.0224 Q20.200001 41.662399 17.6 41.662399 Q15.52 41.662399 13.88 40.782402 Q12.24 39.902401 11.68 38.462402 Q11.36 37.7024 11.36 36.942402 Q11.36 35.062401 12.92 33.502399 Q13.84 32.582401 15.2 31.982401 Q17.92 30.742401 22.16 30.502401 L22.719999 30.502401 L22.719999 29.622402 Q22.719999 28.262402 22.48 27.622402 Q22.08 26.302401 21.08 25.5424 Q20.08 24.7824 18.599998 24.7824 Q15.92 24.7824 15.92 25.102402 Q16.799999 25.7024 16.799999 26.8624 Q16.799999 27.742401 16.18 28.382401 Q15.559999 29.0224 14.639999 29.0224 L14.639999 29.0224 Z M22.719999 34.222401 Q22.719999 31.902401 22.68 31.902401 Q22.559999 31.902401 22.48 31.942402 Q17 32.302399 15.48 35.1824 Q15.04 35.982399 15.04 36.982399 Q15.04 38.3424 16 39.262402 Q16.959999 40.1824 18.360001 40.1824 Q19.959999 40.1824 21.099998 39.222401 Q22.24 38.262402 22.599998 36.8624 Q22.68 36.582401 22.719999 34.222401 L22.719999 34.222401 Z" fill="rgba(0,0,0,1)" fill-rule="nonzero" stroke="none"/><path d="M12.76 15.7512 L12.76 13.9112 L27.199999 13.9112 L27.199999 15.7512 L12.76 15.7512 L12.76 15.7512 Z" fill="rgba(0,0,0,1)" fill-rule="nonzero" stroke="none"/></svg>