<svg xmlns="http://www.w3.org/2000/svg" viewBox="0 0 51.1112 70.8552" width="51.1112pt" height="70.8552pt"><path d="M13.32 10.787601 Q13.32 10.467602 13.559999 10.2276 Q13.8 9.987602 14.16 9.987602 Q14.360001 10.027603 25.439999 14.267601 Q36.519997 18.507601 36.68 18.627602 Q36.959999 18.827602 36.959999 19.227602 Q36.959999 19.627602 36.68 19.827602 Q36.599998 19.907602 25.52 24.167601 Q14.440001 28.427601 14.08 28.427601 Q13.76 28.427601 13.54 28.187601 Q13.32 27.947601 13.32 27.627602 Q13.32 27.187601 13.84 26.947601 L33.879997 19.227602 Q32.519997 18.707602 27.24 16.687601 Q21.959999 14.667601 17.84 13.0676 Q13.72 11.467602 13.68 11.427601 Q13.32 11.187603 13.32 10.787601 L13.32 10.787601 Z M13.36 35.427601 Q13.36 34.987602 13.96 34.627602 L36.32 34.627602 Q36.959999 34.9076 36.959999 35.427601 Q36.959999 35.9076 36.360001 36.2276 L13.92 36.2276 Q13.36 35.947601 13.36 35.427601 L13.36 35.427601 Z M35.919998 42.427601 Q36 42.3876 36.16 42.3876 Q36.48 42.3876 36.720001 42.647602 Q36.959999 42.9076 36.959999 43.187599 Q36.959999 43.587601 36.599998 43.827602 Q36.519997 43.9076 16.4 51.627602 Q21.639999 53.667603 26.76 55.627602 Q31.879999 57.587601 34.139999 58.447601 Q36.400002 59.307602 36.599998 59.3876 Q36.959999 59.587601 36.959999 60.147598 Q36.879997 60.867599 36.16 60.867599 Q36 60.867599 24.84 56.587601 Q13.68 52.307602 13.6 52.2276 Q13.32 52.027599 13.32 51.627602 Q13.32 51.187599 13.72 50.947601 Q13.76 50.9076 19.139999 48.847599 Q24.52 46.787601 30.059999 44.667603 Q35.599998 42.5476 35.919998 42.427601 L35.919998 42.427601 Z" fill="rgba(0,0,0,1)" fill-rule="nonzero" stroke="none"/></svg>