<svg xmlns="http://www.w3.org/2000/svg" viewBox="0 0 51.1112 34.6748" width="51.1112pt" height="34.6748pt"><path d="M38.32 9.994802 Q38.879997 9.994802 38.879997 11.314801 Q38.879997 12.034801 38.720001 12.834801 Q38.400002 14.834801 37.34 16.414801 Q36.279999 17.994801 34.799999 18.714802 Q33.599998 19.3148 32.48 19.3148 L32.16 19.3148 Q31.039999 19.3148 30.16 18.994801 Q28.32 18.354801 25.279999 15.674801 Q23.119999 13.794801 22.16 13.234801 Q20.48 12.234801 18.92 12.234801 Q17.119999 12.234801 15.78 13.274801 Q14.440001 14.314801 13.8 15.834801 Q13.44 16.834801 13.32 18.114801 Q13.24 19.354801 12.76 19.354801 Q12.2 19.354801 12.2 18.034801 Q12.2 17.594801 12.24 17.3148 Q12.559999 14.354801 14.12 12.394801 Q15.68 10.434801 18.040001 10.074801 Q18.439999 9.994802 18.880001 9.994802 Q19.639999 9.994802 20.119999 10.114801 Q21.16 10.354801 22.24 10.954802 Q23.32 11.554801 23.959999 12.074801 Q24.599998 12.594801 25.799999 13.674801 Q27.959999 15.554801 28.92 16.114801 Q30.6 17.114801 32.16 17.114801 Q33.919998 17.114801 35.279999 16.114801 Q36.360001 15.354801 37.059998 13.974801 Q37.760002 12.594801 37.760002 11.154801 Q37.760002 10.674801 37.939999 10.334801 Q38.119999 9.994802 38.32 9.994802 L38.32 9.994802 Z" fill="rgba(0,0,0,1)" fill-rule="nonzero" stroke="none"/></svg>